<svg xmlns="http://www.w3.org/2000/svg" viewBox="0 0 36 36">
<style type="text/css">  
	.circle{fill:#a7a7a7;}
	.arrow{fill:#a7a7a7;}
</style><path class="circle" d="M18 34C9.2 34 2 26.8 2 18S9.2 2 18 2s16 7.2 16 16S26.8 34 18 34zM18 4.2C10.4 4.2 4.2 10.4 4.2 18S10.4 31.8 18 31.8 31.8 25.6 31.8 18 25.6 4.2 18 4.2z"/><path class="arrow" d="M11.3 16.2c0.4 0.5 1.2 0.5 1.7 0l3.9-3.5v13.2C16.8 26.5 17.4 27 18 27s1.2-0.5 1.2-1.1V12.8l3.8 3.5c0.5 0.4 1.2 0.4 1.6 0s0.4-1.2 0-1.6l-5.8-5.3c-0.1 0-0.1-0.1-0.2-0.1l-0.1-0.1 0 0 0 0c-0.1 0-0.2-0.1-0.3-0.1h-0.1l0 0 0 0 0 0 0 0c-0.2 0-0.3 0-0.4 0.1l0 0 0 0 -0.1 0.1c-0.1 0-0.1 0.1-0.2 0.1l-5.8 5.3C10.9 15.1 10.9 15.8 11.3 16.2z"/></svg>